<svg width="30" height="42" viewBox="0 0 30 42" fill="none" xmlns="http://www.w3.org/2000/svg">
<path d="M2 27.3333V14.6667C2 11.3073 3.33452 8.08544 5.70998 5.70998C8.08544 3.33452 11.3073 2 14.6667 2C18.0261 2 21.2479 3.33452 23.6233 5.70998C25.9988 8.08544 27.3333 11.3073 27.3333 14.6667V31.5556C27.3333 33.7952 26.4436 35.943 24.86 37.5267C23.2764 39.1103 21.1285 40 18.8889 40C16.6493 40 14.5014 39.1103 12.9178 37.5267C11.3341 35.943 10.4444 33.7952 10.4444 31.5556V14.6667C10.4444 13.5469 10.8893 12.4729 11.6811 11.6811C12.4729 10.8893 13.5469 10.4444 14.6667 10.4444C15.7865 10.4444 16.8604 10.8893 17.6522 11.6811C18.444 12.4729 18.8889 13.5469 18.8889 14.6667V31.5556" stroke="#95979E" stroke-width="4" stroke-linecap="round" stroke-linejoin="round"/>
</svg>
