<svg width="39" height="27" viewBox="0 0 39 27" fill="none" xmlns="http://www.w3.org/2000/svg">
<path fill-rule="evenodd" clip-rule="evenodd" d="M38.4845 13.5C38.4845 14.0594 38.2622 14.596 37.8666 14.9915C37.4711 15.3871 36.9345 15.6094 36.3751 15.6094H7.71572L15.3657 23.2594C15.573 23.4525 15.7392 23.6854 15.8545 23.9441C15.9698 24.2029 16.0318 24.4822 16.0368 24.7654C16.0418 25.0486 15.9897 25.33 15.8836 25.5926C15.7775 25.8553 15.6196 26.0939 15.4193 26.2942C15.219 26.4945 14.9804 26.6524 14.7177 26.7585C14.4551 26.8646 14.1737 26.9167 13.8905 26.9117C13.6073 26.9067 13.328 26.8447 13.0692 26.7294C12.8105 26.6141 12.5776 26.4479 12.3845 26.2406L1.13447 14.9906C0.739455 14.5951 0.517578 14.059 0.517578 13.5C0.517578 12.941 0.739455 12.4049 1.13447 12.0094L12.3845 0.759371C12.7843 0.386771 13.3132 0.183924 13.8597 0.193566C14.4062 0.203208 14.9276 0.424585 15.314 0.811059C15.7005 1.19753 15.9219 1.71893 15.9315 2.2654C15.9412 2.81187 15.7383 3.34075 15.3657 3.74062L7.71572 11.3906H36.3751C36.9345 11.3906 37.4711 11.6129 37.8666 12.0084C38.2622 12.404 38.4845 12.9406 38.4845 13.5Z" fill="#EDEDED"/>
</svg>
