<svg width="57" height="51" viewBox="0 0 57 51" fill="none" xmlns="http://www.w3.org/2000/svg">
<path d="M51 5.66667H42.0183L36.8333 0H19.8333L14.6483 5.66667H5.66667C4.16377 5.66667 2.72243 6.26369 1.65973 7.32639C0.597022 8.3891 0 9.83044 0 11.3333V45.3333C0 46.8362 0.597022 48.2776 1.65973 49.3403C2.72243 50.403 4.16377 51 5.66667 51H51C52.5029 51 53.9442 50.403 55.0069 49.3403C56.0696 48.2776 56.6667 46.8362 56.6667 45.3333V11.3333C56.6667 9.83044 56.0696 8.3891 55.0069 7.32639C53.9442 6.26369 52.5029 5.66667 51 5.66667ZM51 45.3333H5.66667V11.3333H17.1417L22.3267 5.66667H34.34L39.525 11.3333H51V45.3333ZM28.3333 14.1667C24.5761 14.1667 20.9727 15.6592 18.316 18.316C15.6592 20.9728 14.1667 24.5761 14.1667 28.3333C14.1667 32.0906 15.6592 35.6939 18.316 38.3507C20.9727 41.0074 24.5761 42.5 28.3333 42.5C32.0906 42.5 35.6939 41.0074 38.3507 38.3507C41.0074 35.6939 42.5 32.0906 42.5 28.3333C42.5 24.5761 41.0074 20.9728 38.3507 18.316C35.6939 15.6592 32.0906 14.1667 28.3333 14.1667ZM28.3333 36.8333C26.079 36.8333 23.917 35.9378 22.3229 34.3437C20.7289 32.7497 19.8333 30.5877 19.8333 28.3333C19.8333 26.079 20.7289 23.917 22.3229 22.3229C23.917 20.7289 26.079 19.8333 28.3333 19.8333C30.5877 19.8333 32.7497 20.7289 34.3437 22.3229C35.9378 23.917 36.8333 26.079 36.8333 28.3333C36.8333 30.5877 35.9378 32.7497 34.3437 34.3437C32.7497 35.9378 30.5877 36.8333 28.3333 36.8333Z" fill="#F4F4F4"/>
</svg>
