<svg width="28" height="31" viewBox="0 0 28 31" fill="none" xmlns="http://www.w3.org/2000/svg">
<g id="flat-color-icons:google">
<path id="Vector" d="M25.4398 12.6534H24.5V12.6011H14V17.6416H20.5935C19.6315 20.5757 17.0468 22.682 14 22.682C10.1343 22.682 7.00004 19.2967 7.00004 15.1213C7.00004 10.9459 10.1343 7.56066 14 7.56066C15.7845 7.56066 17.4079 8.28774 18.644 9.4754L21.9439 5.91117C19.8602 3.81371 17.073 2.5202 14 2.5202C7.55712 2.5202 2.33337 8.16236 2.33337 15.1213C2.33337 22.0803 7.55712 27.7225 14 27.7225C20.443 27.7225 25.6667 22.0803 25.6667 15.1213C25.6667 14.2764 25.5862 13.4517 25.4398 12.6534Z" fill="#FFC107"/>
<path id="Vector_2" d="M3.67847 9.25614L7.51155 12.2924C8.54872 9.51887 11.0605 7.56066 14 7.56066C15.7844 7.56066 17.4078 8.28774 18.6439 9.4754L21.9438 5.91117C19.8601 3.81371 17.073 2.5202 14 2.5202C9.5188 2.5202 5.63263 5.25276 3.67847 9.25614Z" fill="#FF3D00"/>
<path id="Vector_3" d="M14 27.7225C17.0135 27.7225 19.7517 26.4769 21.8219 24.4512L18.2111 21.151C17.0004 22.1455 15.521 22.6833 14 22.682C10.9655 22.682 8.38894 20.5921 7.41827 17.6756L3.61377 20.8416C5.5446 24.9225 9.46577 27.7225 14 27.7225Z" fill="#4CAF50"/>
<path id="Vector_4" d="M25.4397 12.6534H24.5V12.6011H14V17.6416H20.5934C20.1333 19.0381 19.3045 20.2583 18.2093 21.1516L18.2111 21.1504L21.8219 24.4506C21.5664 24.7014 25.6667 21.4219 25.6667 15.1214C25.6667 14.2765 25.5862 13.4517 25.4397 12.6534Z" fill="#1976D2"/>
</g>
</svg>
