<svg width="32" height="32" viewBox="0 0 32 32" fill="none" xmlns="http://www.w3.org/2000/svg">
<path d="M32 29.2308L22.4554 19.6846C23.9935 17.5709 24.821 15.0234 24.8185 12.4092C24.8185 5.56692 19.2515 0 12.4092 0C5.56692 0 0 5.56692 0 12.4092C0 19.2515 5.56692 24.8185 12.4092 24.8185C15.0234 24.821 17.5709 23.9935 19.6846 22.4554L29.2308 32L32 29.2308ZM12.4092 20.8992C10.7299 20.8994 9.08814 20.4015 7.69172 19.4686C6.29531 18.5357 5.2069 17.2096 4.56416 15.6581C3.92142 14.1066 3.75321 12.3993 4.0808 10.7522C4.4084 9.10506 5.21708 7.59208 6.40458 6.40458C7.59208 5.21708 9.10506 4.4084 10.7522 4.0808C12.3993 3.75321 14.1066 3.92142 15.6581 4.56416C17.2096 5.2069 18.5357 6.29531 19.4686 7.69172C20.4015 9.08814 20.8994 10.7299 20.8992 12.4092C20.8966 14.6601 20.0013 16.818 18.4096 18.4096C16.818 20.0013 14.6601 20.8966 12.4092 20.8992Z" fill="#ACB1BC"/>
</svg>
