<svg width="47" height="48" viewBox="0 0 47 48" fill="none" xmlns="http://www.w3.org/2000/svg">
<g clip-path="url(#clip0_39_18)">
<path d="M23.25 0.75C10.4062 0.75 0 11.1562 0 24C0 36.8438 10.4062 47.25 23.25 47.25C36.0938 47.25 46.5 36.8438 46.5 24C46.5 11.1562 36.0938 0.75 23.25 0.75ZM30.75 16.5C32.4094 16.5 33.75 17.8406 33.75 19.5C33.75 21.1594 32.4094 22.5 30.75 22.5C29.0906 22.5 27.75 21.1594 27.75 19.5C27.75 17.8406 29.0906 16.5 30.75 16.5ZM15.75 16.5C17.4094 16.5 18.75 17.8406 18.75 19.5C18.75 21.1594 17.4094 22.5 15.75 22.5C14.0906 22.5 12.75 21.1594 12.75 19.5C12.75 17.8406 14.0906 16.5 15.75 16.5ZM34.0125 32.4563C31.3406 35.6625 27.4219 37.5 23.25 37.5C19.0781 37.5 15.1594 35.6625 12.4875 32.4563C11.2125 30.9281 13.5188 29.0156 14.7938 30.5344C16.8938 33.0563 19.9688 34.4906 23.25 34.4906C26.5312 34.4906 29.6063 33.0469 31.7063 30.5344C32.9625 29.0156 35.2781 30.9281 34.0125 32.4563Z" fill="#95979E"/>
</g>
<defs>
<clipPath id="clip0_39_18">
<rect width="46.5" height="48" fill="white"/>
</clipPath>
</defs>
</svg>
