<svg width="34" height="34" viewBox="0 0 34 34" fill="none" xmlns="http://www.w3.org/2000/svg">
<path d="M16.9996 34.0007C26.2835 34.0007 34 26.3006 34 17.0004C34 7.71651 26.2664 0 16.9826 0C7.68309 0 0 7.71651 0 17.0004C0 26.3006 7.69944 34.0007 16.9996 34.0007ZM17.0004 31.1676C9.13238 31.1676 2.84809 24.8669 2.84809 17.0004C2.84809 9.14945 9.11531 2.83316 16.9826 2.83316C24.8328 2.83316 31.1491 9.15016 31.1661 17.0004C31.1825 24.8676 24.8491 31.1676 16.9989 31.1676M11.2985 24.0676C11.6654 24.0676 11.999 23.9176 12.2486 23.6509L16.9826 18.9005L21.7159 23.6509C21.9655 23.9005 22.299 24.0676 22.683 24.0676C23.4155 24.0676 24.0157 23.4503 24.0157 22.7172C24.0157 22.3339 23.8664 22.0174 23.616 21.7671L18.882 17.0338L23.6324 12.2671C23.8991 11.9833 24.0328 11.7003 24.0328 11.3333C24.0337 11.158 23.9999 10.9842 23.9332 10.822C23.8665 10.6598 23.7683 10.5124 23.6443 10.3884C23.5203 10.2644 23.373 10.1662 23.2108 10.0995C23.0486 10.0329 22.8747 9.99902 22.6994 9.99996C22.3488 9.99996 22.0487 10.1166 21.7657 10.4003L16.9819 15.1671L12.2151 10.4167C11.9655 10.15 11.6654 10.0334 11.2985 10.0334C10.549 10.0334 9.96511 10.6002 9.96511 11.3504C9.96511 11.7166 10.0988 12.0331 10.3655 12.2834L15.0988 17.0338L10.3655 21.7842C10.0988 22.0174 9.96511 22.3502 9.96511 22.7172C9.96511 23.4503 10.5482 24.0676 11.2985 24.0676Z" fill="#ED1414"/>
</svg>
